<svg xmlns="http://www.w3.org/2000/svg" width="30" height="32.714" viewBox="0 0 30 32.714">
  <g id="Group_9819" data-name="Group 9819" transform="translate(-1600 -48)">
    <g id="bell" transform="translate(1597.75 53.285)">
      <path id="Path_2917" data-name="Path 2917" d="M16.929,34.929A3.429,3.429,0,0,0,20.357,31.5H13.5A3.429,3.429,0,0,0,16.929,34.929Z" transform="translate(-2.679 -7.5)" fill="#2289ff"/>
      <path id="Path_2918" data-name="Path 2918" d="M14.25,3.289l-1.366.276a6.861,6.861,0,0,0-5.491,6.722A37.143,37.143,0,0,1,6.606,16.7a22.131,22.131,0,0,1-1.137,3.87H23.03a22.33,22.33,0,0,1-1.137-3.87,37.278,37.278,0,0,1-.786-6.414,6.861,6.861,0,0,0-5.491-6.72l-1.366-.28ZM24.913,20.572a4.362,4.362,0,0,0,1.337,1.714h-24a4.362,4.362,0,0,0,1.337-1.714c1.543-3.086,2.091-8.777,2.091-10.286a8.574,8.574,0,0,1,6.866-8.4,1.714,1.714,0,1,1,3.412,0,8.575,8.575,0,0,1,6.866,8.4c0,1.509.549,7.2,2.091,10.286Z" fill="#2289ff" fill-rule="evenodd"/>
    </g>
    <circle id="Ellipse_12" data-name="Ellipse 12" cx="9" cy="9" r="9" transform="translate(1612 48)" fill="#fe7847"/>
  </g>
</svg>
