<svg xmlns="http://www.w3.org/2000/svg" width="145.25" height="174.583" viewBox="0 0 145.25 174.583">
  <g id="Install" transform="translate(0 0.006)">
    <g id="Layer_1" data-name="Layer 1" transform="translate(0 -0.006)">
      <rect id="Rectangle_314" data-name="Rectangle 314" width="80" height="56" transform="translate(33.028 113.384)" fill="#fbe34e"/>
      <path id="Path_11723" data-name="Path 11723" d="M30.291,76.183l-2.647-3.506a56.85,56.85,0,0,0-10.751,1.3A51.823,51.823,0,0,0,7,77.575L24.2,103.251s-1.191-2.779-1.191-8.867.529-9.662,3.177-12.309A22.34,22.34,0,0,0,30.291,76.183Z" fill="#fbe34e"/>
      <path id="Path_11724" data-name="Path 11724" d="M115.194,80.09l4.963-7.941,18.86,7.941s-1.722,9.794-6.089,13.632-9.927,9-9.927,9,1.059-3.706-1.323-9.662A117.273,117.273,0,0,0,115.194,80.09Z" fill="#fbe34e"/>
      <path id="Path_11694" data-name="Path 11694" d="M143.889,101.143l1.361-2.437-2.55-1.122c-12.218-5.378-21.759-9.23-21.859-9.3l-1.607-.664-7.968,8.552a23.466,23.466,0,0,0-14.721-2.45,23.512,23.512,0,1,0-44.09-2.849,23.864,23.864,0,0,0-5.146-.923,23.4,23.4,0,0,0-13.791,3.406l-3.147-4.555H29.043A71.373,71.373,0,0,0,3.094,94.443L.544,95.572,1.906,98c4.768,8.519,16.9,28.924,27.888,37.184-.584,5.06-.976,13.944-1.135,22.012-.12,6.109-.259,20.411.717,29.814a13.384,13.384,0,0,0-1.992-.146,17.391,17.391,0,0,0-6.029,1.653,16.125,16.125,0,0,1-4.648,1.4H.027c.033.79-.027,2.47-.027,2.47v2.53H16.72a18.774,18.774,0,0,0,6.507-1.76,15.538,15.538,0,0,1,4.157-1.295,12.905,12.905,0,0,1,5.372,1.454,14.613,14.613,0,0,0,5.976,1.6h40.8c5.737.04,11.374.073,16.653.073,4.343,0,8.439,0,12.158-.073h29.827v-5.066H117.03c1.461-14.143.166-46.334-.232-55.245C126.426,127.218,137.561,112.437,143.889,101.143Zm-23.333-7.477c2.9,1.189,9.469,3.9,17.516,7.424a132.289,132.289,0,0,1-14.754,20.252,23.239,23.239,0,0,0,.359-2.822A23.492,23.492,0,0,0,115.483,99.1ZM27.742,93.9l1.753,2.55A23.519,23.519,0,0,0,23.9,122.125c-6.64-8.088-12.868-18.4-16.168-24.123a69.056,69.056,0,0,1,20.006-4.1ZM79.534,189.88l-10.969-.086c-8.685-.073-16.945-.139-23.9-.139H41.54a19.322,19.322,0,0,1-6.959-1.64c-1.726-13.446-.843-45.245.332-53.339,5.75-.664,14.894.073,24.515.83,7.35.578,14.96,1.175,22.045,1.268a144.332,144.332,0,0,0,19.2-1.282,74.171,74.171,0,0,1,11.062-.789c.6,12.782,1.58,42.821.206,55.112-1.162,0-2.377.046-3.639.06Z" transform="translate(0 -20.409)" fill="#16062d"/>
      <path id="Path_11695" data-name="Path 11695" d="M108.113,202.287l2.278-22.377-18.5.418.876,21-8.725-4.754L78.91,206.928l21.5,18.048,22.51-15.969L121.466,196.7Zm-7.443,16.295L85.218,205.607l1.023-2.058,11.952,6.487L97.17,185.282l7.6-.173-2.563,25.139,15.02-6.288.312,2.656Z" transform="translate(-26.514 -60.446)" fill="#16062d"/>
      <path id="Path_11696" data-name="Path 11696" d="M60.72,60.481A132.892,132.892,0,0,1,40.2,44.85L36.75,48.562A139.585,139.585,0,0,0,58.164,64.87Z" transform="translate(-12.348 -15.065)" fill="#16062d"/>
      <path id="Path_11697" data-name="Path 11697" d="M156.6,63.353c5.445-5.465,14.21-11.408,19.449-14.96,2.3-1.56,3.533-2.4,4.157-2.935L176.9,41.6c-.445.378-2.038,1.454-3.718,2.6C167.814,47.842,158.8,53.97,153,59.794Z" transform="translate(-51.408 -13.973)" fill="#16062d"/>
      <path id="Path_11698" data-name="Path 11698" d="M154.856,21.143l-4.4-2.523c-.79,1.381-9.867,15.438-13.28,20.737l4.25,2.749C142.678,40.12,153.846,22.89,154.856,21.143Z" transform="translate(-46.092 -6.252)" fill="#16062d"/>
      <path id="Path_11699" data-name="Path 11699" d="M82.126,39.262c-3.951-7.8-10.81-21.162-12.384-22.682L66.23,20.225l-.08-.086C67.186,21.387,72.79,32,77.6,41.54Z" transform="translate(-22.226 -5.567)" fill="#16062d"/>
      <rect id="Rectangle_305" data-name="Rectangle 305" width="31.693" height="5.066" transform="translate(74.028 31.68) rotate(-88.41)" fill="#16062d"/>
      <path id="Path_11700" data-name="Path 11700" d="M119.362,118.219a10,10,0,0,0-2.888,19.528,5.179,5.179,0,1,1,8.074-.883,10,10,0,0,0-5.173-18.645Z" transform="translate(-36.793 -39.717)" fill="#fff"/>
      <path id="Path_11701" data-name="Path 11701" d="M85.659,118.7a10,10,0,0,0-4.07,19.07,5.113,5.113,0,0,1-1.129-3.147,5.179,5.179,0,1,1,9.044,3.366,10,10,0,0,0-3.845-19.256Z" transform="translate(-25.468 -39.879)" fill="#fff"/>
      <rect id="Rectangle_306" data-name="Rectangle 306" width="18.233" height="5.91" transform="translate(91.575 78.136) rotate(-155.21)" fill="#fff"/>
      <rect id="Rectangle_307" data-name="Rectangle 307" width="18.233" height="5.91" transform="matrix(-0.88, 0.475, -0.475, -0.88, 72.357, 67.514)" fill="#fff"/>
      <circle id="Ellipse_1287" data-name="Ellipse 1287" cx="1.282" cy="1.282" r="1.282" transform="translate(91.459 97.141)" fill="#fff"/>
      <circle id="Ellipse_1288" data-name="Ellipse 1288" cx="1.282" cy="1.282" r="1.282" transform="translate(92.874 101.058)" fill="#fff"/>
      <circle id="Ellipse_1289" data-name="Ellipse 1289" cx="1.282" cy="1.282" r="1.282" transform="translate(95.463 97.752)" fill="#fff"/>
      <circle id="Ellipse_1290" data-name="Ellipse 1290" cx="1.282" cy="1.282" r="1.282" transform="translate(45.909 96.928)" fill="#fff"/>
      <circle id="Ellipse_1291" data-name="Ellipse 1291" cx="1.282" cy="1.282" r="1.282" transform="translate(47.323 100.846)" fill="#fff"/>
      <circle id="Ellipse_1292" data-name="Ellipse 1292" cx="1.282" cy="1.282" r="1.282" transform="translate(49.913 97.533)" fill="#fff"/>
    </g>
  </g>
</svg>
