<svg xmlns="http://www.w3.org/2000/svg" xmlns:xlink="http://www.w3.org/1999/xlink" width="41.932" height="43.417" viewBox="0 0 41.932 43.417">
  <defs>
    <filter id="Icon_material-favorite" x="0" y="3.294" width="41.932" height="40.123" filterUnits="userSpaceOnUse">
      <feOffset dy="3" input="SourceAlpha"/>
      <feGaussianBlur stdDeviation="3" result="blur"/>
      <feFlood flood-opacity="0.369"/>
      <feComposite operator="in" in2="blur"/>
      <feComposite in="SourceGraphic"/>
    </filter>
  </defs>
  <g id="Group_9826" data-name="Group 9826" transform="translate(-424.033 -2401.706)">
    <g id="Component_6_1" data-name="Component 6 – 1" transform="translate(427.705 2401.706)">
      <g id="Component_7_1" data-name="Component 7 – 1">
        <g id="Group_9824" data-name="Group 9824" transform="translate(0)">
          <g id="Group_9823" data-name="Group 9823" transform="translate(0.001)">
            <path id="Path_6404" data-name="Path 6404" d="M6,0H28a6,6,0,0,1,6,6V28a6,6,0,0,1-6,6H6a6,6,0,0,1-6-6V6A6,6,0,0,1,6,0Z" transform="matrix(1, 0.017, -0.017, 1, 0.593, 0)" fill="#fe7847"/>
          </g>
        </g>
      </g>
    </g>
    <g id="Group_9825" data-name="Group 9825" transform="translate(-34.535 10)">
      <g transform="matrix(1, 0, 0, 1, 458.57, 2391.71)" filter="url(#Icon_material-favorite)">
        <path id="Icon_material-favorite-2" data-name="Icon material-favorite" d="M13.966,24.623l-1.59-1.448C6.728,18.054,3,14.676,3,10.531A5.973,5.973,0,0,1,9.031,4.5a6.567,6.567,0,0,1,4.935,2.292A6.567,6.567,0,0,1,18.9,4.5a5.973,5.973,0,0,1,6.031,6.031c0,4.145-3.728,7.523-9.376,12.655Z" transform="translate(7 5.79)" fill="none" stroke="#fff" stroke-linecap="round" stroke-linejoin="round" stroke-width="2"/>
      </g>
    </g>
  </g>
</svg>
