<svg xmlns="http://www.w3.org/2000/svg" width="34" height="34" viewBox="0 0 34 34">
  <g id="Group_9711" data-name="Group 9711" transform="translate(-506 -2394)">
    <rect id="Rectangle_111" data-name="Rectangle 111" width="34" height="34" rx="6" transform="translate(506 2394)" fill="#ebebeb"/>
    <g id="plus-circle" transform="translate(511 2399)">
      <path id="Path_2935" data-name="Path 2935" d="M14.4,7.875a.725.725,0,0,1,.725.725v5.8a.725.725,0,0,1-.725.725H8.6a.725.725,0,0,1,0-1.451h5.078V8.6A.725.725,0,0,1,14.4,7.875Z" transform="translate(-2.797 -2.797)" fill-rule="evenodd"/>
      <path id="Path_2936" data-name="Path 2936" d="M16.875,17.6a.725.725,0,0,1,.725-.725h5.8a.725.725,0,0,1,0,1.451H18.326V23.4a.725.725,0,0,1-1.451,0Z" transform="translate(-5.993 -5.993)" fill-rule="evenodd"/>
      <path id="Path_2937" data-name="Path 2937" d="M11.607,21.764A10.156,10.156,0,1,0,1.451,11.607,10.156,10.156,0,0,0,11.607,21.764Zm0,1.451A11.607,11.607,0,1,0,0,11.607,11.607,11.607,0,0,0,11.607,23.215Z" fill-rule="evenodd"/>
    </g>
  </g>
</svg>
