<svg xmlns="http://www.w3.org/2000/svg" width="34" height="34" viewBox="0 0 34 34">
  <g id="Group_9710" data-name="Group 9710" transform="translate(-419 -2394)">
    <rect id="Rectangle_109" data-name="Rectangle 109" width="34" height="34" rx="6" transform="translate(419 2394)" fill="#ebebeb"/>
    <g id="fullscreen-exit" transform="translate(426 2401)">
      <path id="Path_2938" data-name="Path 2938" d="M6.96,0a.633.633,0,0,1,.633.633V5.694a1.9,1.9,0,0,1-1.9,1.9H.633a.633.633,0,0,1,0-1.265H5.694a.633.633,0,0,0,.633-.633V.633A.633.633,0,0,1,6.96,0Zm6.327,0a.633.633,0,0,1,.633.633V5.694a.633.633,0,0,0,.633.633h5.062a.633.633,0,0,1,0,1.265H14.552a1.9,1.9,0,0,1-1.9-1.9V.633A.633.633,0,0,1,13.286,0ZM0,13.286a.633.633,0,0,1,.633-.633H5.694a1.9,1.9,0,0,1,1.9,1.9v5.062a.633.633,0,0,1-1.265,0V14.552a.633.633,0,0,0-.633-.633H.633A.633.633,0,0,1,0,13.286Zm12.654,1.265a1.9,1.9,0,0,1,1.9-1.9h5.062a.633.633,0,0,1,0,1.265H14.552a.633.633,0,0,0-.633.633v5.062a.633.633,0,0,1-1.265,0Z" fill-rule="evenodd"/>
    </g>
  </g>
</svg>
